<svg xmlns="http://www.w3.org/2000/svg" xmlns:xlink="http://www.w3.org/1999/xlink" width="240" height="93" viewBox="0 0 240 93">
    <defs>
        <path id="a" d="M131.162.29H.076v74.092h131.086V.29z"/>
        <path id="c" d="M0 83.784h185.914V.289H0z"/>
        <linearGradient id="e" x1="50%" x2="50%" y1="0%" y2="100%">
            <stop offset="0%" stop-color="#F84848"/>
            <stop offset="100%" stop-color="#BCA5A5"/>
        </linearGradient>
        <path id="f" d="M0 93.267h206.69V1.031H0z"/>
    </defs>
    <g fill="none" fill-rule="evenodd">
        <path fill="#CCC" d="M94.065 84.642h106.202v-5.528H94.065z"/>
        <g transform="translate(28 4.733)">
            <path fill="#E6E6E6" d="M66.81 83.351h115.642a3.45 3.45 0 0 0 3.461-3.442H66.81v3.442z"/>
            <g transform="translate(41.105)">
                <mask id="b" fill="#fff">
                    <use xlink:href="#a"/>
                </mask>
                <path fill="#F2F2F2" d="M131.162 74.382H25.539l.119-36.801c.009-2.81-2.28-5.092-5.105-5.092h-7.198l.082-23.183c.01-2.567-2.086-4.65-4.667-4.64l-8.694.032v-1.97A2.447 2.447 0 0 1 2.529.289h126.179a2.447 2.447 0 0 1 2.454 2.44v71.654z" mask="url(#b)"/>
            </g>
            <path fill="#E6E6E6" d="M149.963 10.405H64.161V4.88h84.284c.839 0 1.518.675 1.518 1.509v4.016z"/>
            <mask id="d" fill="#fff">
                <use xlink:href="#c"/>
            </mask>
            <path fill="#F2F2F2" d="M89.16 68.277h60.803V10.406H89.161z" mask="url(#d)"/>
            <path fill="#CCC" d="M89.16 68.277H66.81V35.672a3.246 3.246 0 0 0-2.649-3.183V10.406h25v57.87z" mask="url(#d)"/>
            <path fill="#F4A6AC" d="M127.256 36.279H116.63a.563.563 0 0 1-.564-.56V16.537c0-.53.432-.959.964-.959h9.826c.532 0 .964.43.964.959v19.18c0 .31-.253.561-.564.561M107.268 36.279H96.643a.563.563 0 0 1-.564-.56V16.537c0-.53.431-.959.963-.959h9.827c.532 0 .964.43.964.959v19.18c0 .31-.253.561-.565.561" mask="url(#d)"/>
            <path fill="#DEDEE1" d="M81.638 20.734H67.273a2.205 2.205 0 0 1-2.213-2.199v-1.359c0-1.214.991-2.2 2.213-2.2h14.365c1.22 0 2.211.986 2.211 2.2v1.36c0 1.214-.99 2.198-2.211 2.198" mask="url(#d)"/>
            <path fill="#F4A6AC" d="M126.56 64.533h-9.234c-.696 0-1.26-.56-1.26-1.251V41.757h11.754v21.525c0 .691-.564 1.251-1.26 1.251M106.354 64.533h-8.796a1.475 1.475 0 0 1-1.479-1.469V41.757h11.753v21.307c0 .811-.662 1.47-1.478 1.47M145.069 64.533h-9.072c-.741 0-1.341-.596-1.341-1.333V41.757h11.754V63.2c0 .737-.6 1.333-1.341 1.333M145.845 36.279H135.22a.563.563 0 0 1-.564-.56V16.537c0-.53.431-.959.963-.959h9.827c.532 0 .964.43.964.959v19.18c0 .31-.253.561-.565.561" mask="url(#d)"/>
            <path fill="#F2F2F2" d="M39.013 76.582H0v-66c0-2.077 1.693-3.76 3.783-3.76h44.805c2.09 0 3.784 1.683 3.784 3.76V32.1h-8.695c-2.576 0-4.664 2.077-4.664 4.638v39.844z" mask="url(#d)"/>
            <path fill="#E6E6E6" d="M38.98 83.571H2.587A2.58 2.58 0 0 1 0 81v-4.865h38.635l.345 7.437z" mask="url(#d)"/>
            <path fill="#F2F2F2" d="M64.905 76.558H40.417l.03-39.81a2.751 2.751 0 0 1 2.76-2.744h18.97a2.751 2.751 0 0 1 2.759 2.744l-.031 39.81z" mask="url(#d)"/>
            <path fill="#E6E6E6" d="M40.433 76.036H64.92l-.03 5.004a2.751 2.751 0 0 1-2.761 2.743H43.16a2.751 2.751 0 0 1-2.758-2.743l.03-5.004z" mask="url(#d)"/>
            <path fill="#F4A6AC" d="M39.806 32.738l-.818 2.342h-1.793a.13.13 0 0 1-.13-.13V20.496c0-.584.477-1.058 1.063-1.058h9.94a1.06 1.06 0 0 1 1.063 1.058v11.432l-5.125-.194c0 .072-4.129 1.004-4.2 1.004M38.172 56.97h-.818a.288.288 0 0 1-.289-.288V40.557c0-.526.427-.95.957-.95 0 0 .309 17.363.15 17.363M38.218 76.26h-.912a.289.289 0 0 1-.29-.288v-14.08c0-.526.428-.952.957-.952 0 0 .404 15.32.245 15.32M42.868 76.014v-7.997c0-.83.676-1.502 1.51-1.502h16.566c.834 0 1.51.673 1.51 1.502v7.997M31.863 35.08H20.058a.13.13 0 0 1-.131-.13V20.496c0-.584.476-1.058 1.064-1.058h9.94c.586 0 1.063.474 1.063 1.058V34.95a.13.13 0 0 1-.13.13M31.705 56.97H20.216a.29.29 0 0 1-.29-.288V40.557c0-.526.429-.95.957-.95h10.155c.528 0 .956.424.956.95v16.125c0 .16-.13.288-.29.288M31.657 76.26h-11.49a.288.288 0 0 1-.288-.288v-14.08c0-.526.428-.952.956-.952H30.99c.527 0 .954.426.954.952v14.08c0 .16-.129.289-.288.289M14.773 35.08H2.968a.13.13 0 0 1-.13-.13V20.496c0-.584.476-1.058 1.063-1.058h9.939c.588 0 1.065.474 1.065 1.058V34.95c0 .071-.06.13-.132.13M14.615 56.97H3.127a.289.289 0 0 1-.29-.288V40.557c0-.526.428-.95.957-.95h10.155c.527 0 .955.424.955.95v16.125a.29.29 0 0 1-.29.288M14.566 76.26H3.08a.289.289 0 0 1-.29-.288v-14.08c0-.526.428-.952.956-.952H13.9c.528 0 .956.426.956.952v14.08c0 .16-.13.289-.29.289" mask="url(#d)"/>
            <path fill="#CCC" d="M30.385 12.678h-9.453a2.22 2.22 0 0 1-2.226-2.213 2.22 2.22 0 0 1 2.226-2.214h9.453a2.22 2.22 0 0 1 2.226 2.214 2.22 2.22 0 0 1-2.226 2.213" mask="url(#d)"/>
            <path fill="#F4A6AC" d="M61.166 61.591h-17.01c-.636 0-1.151-.513-1.151-1.145V47.465c0-.674.548-1.22 1.227-1.22H61.09c.677 0 1.227.546 1.227 1.22v12.98c0 .633-.516 1.146-1.152 1.146" mask="url(#d)"/>
            <path fill="#CCC" d="M55.829 38.942h-5.515a.74.74 0 0 1-.741-.737v-.978c0-.827.674-1.498 1.506-1.498h3.984c.832 0 1.507.671 1.507 1.498v.978a.74.74 0 0 1-.741.737" mask="url(#d)"/>
        </g>
        <g transform="translate(0 -1)">
            <rect width="240" height="16.835" y="76.962" fill="#E6E6E6" fill-opacity=".5" rx="8.418"/>
            <g transform="translate(18)">
                <path fill="url(#e)" d="M192.94 90.7H76.307a5.803 5.803 0 0 0 1.375-3.716h27.86a2.68 2.68 0 0 0 2.47 1.656h16.397a2.683 2.683 0 0 0 2.472-1.656h71.362a4.236 4.236 0 0 1-4.193 3.715h-1.108zM8.353 86.194V83.58l39.159-.046v3.408c0 1.435.522 2.747 1.382 3.763H13.78c-.011 0-.02-.006-.03-.006h-.96a4.505 4.505 0 0 1-4.438-4.504zm17.02-4.696l-13.249.015V67.221c0-.664.539-1.204 1.2-1.204h10.848c.662 0 1.2.54 1.2 1.204v14.278zm17.115-.02l-13.249.016V67.22c0-.664.539-1.204 1.2-1.204h10.849c.662 0 1.2.54 1.2 1.204v14.258zM12.85 10.648h46.029c2.48 0 4.497 2.023 4.497 4.51v21.464H60.06V25.525c0-1.036-.84-1.879-1.872-1.879h-10.42a1.878 1.878 0 0 0-1.873 1.88v13.51a1.85 1.85 0 0 0 1.834 1.852 5.782 5.782 0 0 0-.218 1.558v1.638a1.66 1.66 0 0 0-1.616 1.658v15.566c0 .903.72 1.635 1.616 1.66v2.593a1.66 1.66 0 0 0-1.616 1.66v14.254l-2.95.004V67.221c0-.917-.743-1.665-1.658-1.665H30.438c-.914 0-1.657.748-1.657 1.665v14.274l-2.952.004V67.22c0-.917-.743-1.665-1.658-1.665H13.324c-.915 0-1.659.748-1.659 1.665v14.293l-3.313.004v-66.36c0-2.487 2.017-4.51 4.497-4.51zm35.21-3.59c0-2.463 1.999-4.466 4.454-4.466h128.042a4.465 4.465 0 0 1 4.454 4.467V80.31l-107.326-.817v-2.135l85.534-.139.567-67.073a3.786 3.786 0 0 0-3.775-3.787h-86.75a3.786 3.786 0 0 0-3.776 3.787v26.475H65.43V15.158c0-3.623-2.94-6.572-6.552-6.572H48.06V7.06zm-.548 74.415l-1.158.002V67.221a1.2 1.2 0 0 1 1.158-1.196v15.448zm0-18.97a1.2 1.2 0 0 1-1.158-1.195V45.742a1.2 1.2 0 0 1 1.158-1.194v17.955zm25.648 18.969H51.972v-8.036a1.84 1.84 0 0 1 1.837-1.84h17.513a1.84 1.84 0 0 1 1.837 1.84v8.036zM70.51 28.855h28.302v11.147H77.138c-.923-1.992-2.932-3.38-5.263-3.38H70.51v-7.767zm92.203-13.602l-.006-.001H70.51v-5.105a2.755 2.755 0 0 1 2.748-2.756h86.75a2.753 2.753 0 0 1 2.749 2.75l-.044 5.112zm-63.387 1.03h63.378l-.506 59.908-62.872.103V16.283zm-21.643 47.56h21.129v12.452l-21.13.034V63.843zm21.129-12.178h-21.13v-3.056h11.093a.258.258 0 0 0 0-.516H77.683v-3.712h16.906a.258.258 0 0 0 0-.516H77.683v-1.419a5.79 5.79 0 0 0-.335-1.928h21.464v11.147zm-21.13 4.597H94.59a.257.257 0 0 0 0-.515H77.683V52.18h21.129v11.148h-21.13v-7.066zM70.51 28.338h28.302V16.283H70.51v12.055zm1.365 10.346a3.761 3.761 0 0 1 3.752 3.762v37.631a1.012 1.012 0 0 0-.104.431c-.002.16.04.306.104.442v.522h-2.01v-8.036a2.3 2.3 0 0 0-2.295-2.3H53.81a2.3 2.3 0 0 0-2.294 2.3v8.036h-1.949V42.446a3.761 3.761 0 0 1 3.753-3.762h18.556zm-24.133 1.745c-.766 0-1.39-.625-1.39-1.393v-13.51c0-.783.636-1.419 1.416-1.419h10.42c.78 0 1.415.636 1.415 1.418v11.097H53.32c-2.495 0-4.621 1.589-5.44 3.807h-.137zm23.297 50.27c-.01 0-.02.005-.031.006h-17.69a3.762 3.762 0 0 1-3.752-3.763v-3.409h26.061v3.41a3.76 3.76 0 0 1-3.691 3.756h-.897zm54.65-3.715c-.301.379-.76.625-1.28.625h-16.397c-.52 0-.977-.246-1.28-.625h18.957zm-48.006-2.061v-3.368l107.326.819v2.549H77.683zm127.98 5.776h-6.98a6.277 6.277 0 0 0 1.646-4.238v-1.538h-13.265V7.059c0-3.6-2.92-6.528-6.51-6.528H52.514c-3.589 0-6.509 2.928-6.509 6.528v1.527H12.85c-3.614 0-6.553 2.95-6.553 6.572v71.037c0 1.744.686 3.326 1.795 4.504H1.028C.46 90.7 0 91.161 0 91.73c0 .57.46 1.032 1.028 1.032h11.7c.04 0 .08.006.12.006h39.863c.043 0 .08-.02.121-.025.16.013.322.025.487.025h18.556c.04 0 .078-.005.118-.006h133.67c.568 0 1.028-.462 1.028-1.031 0-.57-.46-1.03-1.028-1.03z" transform="translate(0 .5)"/>
                <path fill="url(#e)" d="M74.067 13.156a1.115 1.115 0 0 1 0-2.232 1.115 1.115 0 0 1 0 2.232m0-2.692c-.866 0-1.57.707-1.57 1.575 0 .87.704 1.576 1.57 1.576a1.575 1.575 0 0 0 0-3.15M78.283 13.156a1.115 1.115 0 0 1 0-2.232 1.115 1.115 0 0 1 0 2.232m0-2.692c-.867 0-1.57.707-1.57 1.575 0 .87.703 1.576 1.57 1.576a1.575 1.575 0 0 0 0-3.15M82.498 13.156a1.115 1.115 0 0 1 0-2.232 1.115 1.115 0 0 1 0 2.232m0-2.692c-.866 0-1.57.707-1.57 1.575 0 .87.704 1.576 1.57 1.576a1.575 1.575 0 0 0 0-3.15M74.477 33h20.111a.257.257 0 0 0 0-.516H74.477a.257.257 0 0 0 0 .515M74.477 37.227h7.32a.257.257 0 0 0 0-.515h-7.32a.257.257 0 0 0 0 .515M118.664 39.829c0 1.17-.95 2.122-2.117 2.122h-9.364a2.121 2.121 0 0 1-2.116-2.122V22.428a2.12 2.12 0 0 1 2.116-2.123h9.364c1.167 0 2.117.952 2.117 2.123v17.4zm-2.117-19.984h-9.364a2.581 2.581 0 0 0-2.574 2.583v17.4a2.58 2.58 0 0 0 2.574 2.583h9.364a2.58 2.58 0 0 0 2.574-2.582V22.428a2.581 2.581 0 0 0-2.574-2.583zM118.664 70.173c0 1-.813 1.815-1.811 1.815h-9.976c-.997 0-1.81-.814-1.81-1.815v-20.37c0-1 .813-1.815 1.81-1.815h9.976c.998 0 1.81.815 1.81 1.815v20.37zm-1.811-22.645h-9.976a2.275 2.275 0 0 0-2.268 2.275v20.37a2.275 2.275 0 0 0 2.268 2.276h9.976a2.275 2.275 0 0 0 2.268-2.276v-20.37a2.275 2.275 0 0 0-2.268-2.275zM138.499 40.017c0 1.17-.95 2.122-2.116 2.122h-9.365a2.121 2.121 0 0 1-2.116-2.122V22.616c0-1.17.949-2.122 2.116-2.122h9.365c1.166 0 2.116.952 2.116 2.122v17.4zm-2.116-19.983h-9.365a2.58 2.58 0 0 0-2.574 2.582v17.4a2.58 2.58 0 0 0 2.574 2.583h9.365a2.58 2.58 0 0 0 2.573-2.582V22.616a2.58 2.58 0 0 0-2.573-2.582zM138.499 70.361c0 1.001-.813 1.815-1.811 1.815h-9.976c-.997 0-1.81-.814-1.81-1.815v-20.37c0-1 .813-1.814 1.81-1.814h9.976c.998 0 1.81.814 1.81 1.815v20.37zm-1.811-22.645h-9.976a2.275 2.275 0 0 0-2.268 2.276v20.37a2.275 2.275 0 0 0 2.268 2.275h9.976a2.275 2.275 0 0 0 2.268-2.276v-20.37a2.275 2.275 0 0 0-2.268-2.275zM157.245 40.017c0 1.17-.95 2.122-2.118 2.122h-9.363a2.121 2.121 0 0 1-2.116-2.122V22.616c0-1.17.948-2.122 2.116-2.122h9.363c1.168 0 2.118.952 2.118 2.122v17.4zm-2.118-19.983h-9.363a2.58 2.58 0 0 0-2.575 2.582v17.4a2.58 2.58 0 0 0 2.575 2.583h9.363a2.58 2.58 0 0 0 2.575-2.582V22.616a2.58 2.58 0 0 0-2.575-2.582zM157.245 70.361c0 1.001-.813 1.815-1.811 1.815h-9.976c-.997 0-1.81-.814-1.81-1.815v-20.37c0-1 .813-1.814 1.81-1.814h9.976c.998 0 1.81.814 1.81 1.815v20.37zm-1.811-22.645h-9.976a2.275 2.275 0 0 0-2.269 2.276v20.37a2.275 2.275 0 0 0 2.269 2.275h9.976a2.275 2.275 0 0 0 2.268-2.276v-20.37a2.275 2.275 0 0 0-2.268-2.275zM91.292 26.458H77.363a3.075 3.075 0 0 1-3.067-3.076 3.075 3.075 0 0 1 3.067-3.077h13.929a3.076 3.076 0 0 1 3.067 3.077 3.075 3.075 0 0 1-3.067 3.076m0-6.614H77.363a3.535 3.535 0 0 0-3.524 3.538c0 1.949 1.58 3.535 3.524 3.535h13.929a3.535 3.535 0 0 0 3.526-3.535 3.536 3.536 0 0 0-3.526-3.538M157.569 11.378h-.933l-.419-.993-.357.151.519 1.231h1.455l.426-1.112h.38v-.389h-.645zM157.681 12.21a.264.264 0 1 0 0 .53.264.264 0 0 0 0-.53M156.531 12.21a.264.264 0 1 0 0 .53.264.264 0 0 0 0-.53M62.277 89.361a1.852 1.852 0 0 1 0-3.704c1.018 0 1.846.83 1.846 1.852a1.851 1.851 0 0 1-1.846 1.852m0-4.22a2.368 2.368 0 0 0 0 4.736 2.366 2.366 0 0 0 2.36-2.368 2.367 2.367 0 0 0-2.36-2.367"/>
                <mask id="g" fill="#fff">
                    <use xlink:href="#f"/>
                </mask>
                <path fill="url(#e)" d="M11.438 14.82h4.795v-.515h-4.795zM11.438 16.753h4.795v-.515h-4.795zM11.438 18.686h4.795v-.516h-4.795zM25.372 26.025V39.51c0 .783-.635 1.419-1.415 1.419h-10.42a1.418 1.418 0 0 1-1.414-1.419V26.025c0-.782.635-1.418 1.414-1.418h10.42c.78 0 1.415.636 1.415 1.418m-13.707 0V39.51c0 1.036.839 1.88 1.872 1.88h10.42a1.878 1.878 0 0 0 1.872-1.88V26.025c0-1.036-.84-1.878-1.872-1.878h-10.42a1.876 1.876 0 0 0-1.872 1.878M25.372 61.808c0 .664-.539 1.204-1.2 1.204h-10.85c-.66 0-1.2-.54-1.2-1.204V46.243c0-.664.54-1.204 1.2-1.204h10.85c.661 0 1.2.54 1.2 1.204v15.565zm-1.2-17.229h-10.85c-.913 0-1.657.747-1.657 1.664v15.565c0 .918.744 1.664 1.658 1.664h10.849c.914 0 1.657-.746 1.657-1.664V46.243c0-.917-.743-1.664-1.657-1.664zM42.488 39.51c0 .783-.635 1.419-1.415 1.419h-10.42a1.419 1.419 0 0 1-1.416-1.419V26.025c0-.782.637-1.418 1.416-1.418h10.42c.78 0 1.415.636 1.415 1.418V39.51zm-1.415-15.363h-10.42a1.877 1.877 0 0 0-1.873 1.878V39.51c0 1.036.84 1.88 1.873 1.88h10.42a1.878 1.878 0 0 0 1.872-1.88V26.025c0-1.036-.84-1.878-1.872-1.878zM42.488 61.808c0 .664-.539 1.204-1.201 1.204h-10.85c-.66 0-1.2-.54-1.2-1.204V46.243c0-.664.54-1.204 1.2-1.204h10.85c.662 0 1.2.54 1.2 1.204v15.565zM41.287 44.58h-10.85c-.913 0-1.657.747-1.657 1.664v15.565c0 .918.744 1.664 1.658 1.664h10.849c.915 0 1.658-.746 1.658-1.664V46.243c0-.917-.743-1.664-1.658-1.664zM73.159 65.833a1.842 1.842 0 0 1-1.837 1.842H53.81a1.842 1.842 0 0 1-1.837-1.842v-12.64c0-1.016.825-1.841 1.837-1.841h17.513c1.013 0 1.837.825 1.837 1.842v12.639zm-1.837-14.941H53.81a2.3 2.3 0 0 0-2.295 2.302v12.639a2.3 2.3 0 0 0 2.295 2.301h17.513a2.3 2.3 0 0 0 2.294-2.301v-12.64a2.3 2.3 0 0 0-2.294-2.301zM52.108 42.227h3.154v-.516h-3.154zM52.108 43.498h3.154v-.516h-3.154zM52.108 44.769h3.154v-.516h-3.154zM30.258 13.633h10.638a2.282 2.282 0 0 1 2.275 2.282 2.282 2.282 0 0 1-2.275 2.283H30.258a2.282 2.282 0 0 1 0-4.565m0 5.025h10.638a2.741 2.741 0 0 0 2.733-2.743 2.741 2.741 0 0 0-2.733-2.742H30.258a2.74 2.74 0 0 0-2.734 2.742 2.74 2.74 0 0 0 2.734 2.743M59.033 42.96c0-.866.704-1.57 1.567-1.57h4.752c.865 0 1.569.704 1.569 1.57v.262c0 .867-.704 1.572-1.569 1.572H60.6a1.572 1.572 0 0 1-1.567-1.572v-.262zm1.567 2.295h4.752a2.032 2.032 0 0 0 2.026-2.033v-.262c0-1.119-.909-2.031-2.026-2.031H60.6a2.03 2.03 0 0 0-2.025 2.031v.262a2.03 2.03 0 0 0 2.025 2.033zM55.61 16.7h2.616l.81-2.113h.795a.257.257 0 0 0 0-.516h-1.149l-.81 2.113h-1.921l-.826-1.955a.256.256 0 0 0-.337-.138.26.26 0 0 0-.136.338l.957 2.27zM58.011 17.654a.503.503 0 0 0-.502.504.503.503 0 1 0 1.004 0 .503.503 0 0 0-.502-.504M55.825 17.654a.503.503 0 0 0-.501.504.503.503 0 1 0 1.003 0 .503.503 0 0 0-.502-.504M71.086 43.52h1.735l.497-1.293h.418a.257.257 0 0 0 0-.515h-.772l-.495 1.292h-1.041l-.48-1.136a.258.258 0 0 0-.474.201l.612 1.45zM72.93 44.311a.308.308 0 1 0 0 0M71.591 44.311a.308.308 0 1 0-.615 0 .308.308 0 0 0 .615 0M35.556 85.657c1.018 0 1.847.831 1.847 1.853a1.851 1.851 0 0 1-1.847 1.852 1.852 1.852 0 0 1 0-3.705m0 4.22a2.367 2.367 0 0 0 2.36-2.367 2.366 2.366 0 0 0-2.36-2.368 2.367 2.367 0 0 0 0 4.735" mask="url(#g)"/>
            </g>
        </g>
    </g>
</svg>
