<svg height="126" viewBox="0 0 537 126" width="537" xmlns="http://www.w3.org/2000/svg" xmlns:xlink="http://www.w3.org/1999/xlink"><linearGradient id="a"><stop offset="0" stop-color="#f84848"/><stop offset="1" stop-color="#bca5a5"/></linearGradient><linearGradient id="b" x1="50%" x2="50%" xlink:href="#a" y1="0%" y2="100%"/><linearGradient id="c" x1="50%" x2="50%" xlink:href="#a" y1="-53.403823%" y2="100%"/><linearGradient id="d" x1="50%" x2="50%" xlink:href="#a" y1="-9.897171%" y2="100%"/><g fill="none" fill-rule="evenodd" transform=""><path d="m0 111.5c0-6.903559 5.60049268-12.5 12.499751-12.5h512.000498c6.903422 0 12.499751 5.594923 12.499751 12.5 0 6.903559-5.600493 12.5-12.499751 12.5h-512.000498c-6.90342185 0-12.499751-5.594923-12.499751-12.5z" fill="#e6e6e6" fill-opacity=".5"/><path d="m130.8906 66.4797h-87.758c-4.188 0-7.583-3.395-7.583-7.583s3.395-7.583 7.583-7.583h87.758z" fill="#f2f2f2"/><path d="m114.8895 92.7297h-78.758c-4.188 0-7.583-3.395-7.583-7.583 0-4.188 3.395-7.583 7.583-7.583h78.758z" fill="#f2f2f2"/><path d="m144.7341 118.6499h-113.922c-4.188 0-7.583-3.395-7.583-7.583 0-4.188 3.395-7.583 7.583-7.583h113.922z" fill="#f2f2f2"/><path d="m408.0288 46.23v52.333h13.399v18.866c0 2.309-1.872 4.181-4.181 4.181h-9.218v.598h56.364v-75.978z" fill="#f2f2f2"/><path d="m408.1533 56.1982v42.365h13.275v2.873h37.302v-45.238z" fill="#f4a6ac"/><path d="m211.5669 102.0986v20.109h86.257c-.443-.708-.71-1.538-.71-2.436v-9.432c0-1.089.882-1.971 1.971-1.971 1.088 0 1.971.882 1.971 1.971v8.024c0 1.015.823 1.837 1.838 1.837h22.539c1.015 0 1.838-.822 1.838-1.837v-8.024c0-1.089.882-1.971 1.971-1.971s1.971.882 1.971 1.971v9.432c0 .898-.267 1.728-.71 2.436h86.693v-20.109z" fill="#f2f2f2"/><path d="m399.5408 108.0633h-15.024c-.17 0-.308.138-.308.308v5.699h15.64v-5.699c0-.17-.138-.308-.308-.308" fill="#ccc"/><path d="m327.2706 111.3397v8.861h-26.215v-8.861c0-.536-.434-.971-.971-.971-.536 0-.971.435-.971.971v13.043h30.099v-13.043c0-.536-.435-.971-.971-.971s-.971.435-.971.971" fill="#ccc"/><path d="m401.6694 8.2747h-174.775c-1.503 0-2.722 1.218-2.722 2.721v5.05c2.098-.1 3.328.01 3.328.01s.756 8.175-3.328 18.5v64.008h180.218v-87.568c0-1.503-1.218-2.721-2.721-2.721" fill="#dbd1d1"/><g fill="#f4a6ac"><path d="m244.4455 39.9692h-1.604v-4.849c0-.443.359-.802.802-.802s.802.359.802.802z"/><path d="m238.7788 39.9692h-1.604v-4.849c0-.443.359-.802.802-.802s.802.359.802.802z"/><path d="m242.842 69.319h1.604v-25.914h-1.604z"/><path d="m237.175 69.319h1.604v-25.914h-1.604z"/><path d="m244.4455 80.9894-1.046 3.956-.558-.956v-5.383h1.604z"/><path d="m238.7788 80.9894-1.25 4.337-.354-1.337v-5.383h1.604z"/></g><path d="m336.429 92.1459h55.687v-55.303l-55.687 40.352z" fill="#f2f2f2"/><path d="m260.141 98.563h55.125v-73.037h-55.125z" fill="#f4a6ac"/><path d="m509.9919 111.3133h-31.454l.039-52.888c0-1.957 1.587-3.544 3.545-3.544h24.365c1.958 0 3.545 1.587 3.545 3.544z" fill="#f2f2f2"/><path d="m478.5574 110.6374h31.454l-.039 5.008c0 1.958-1.587 3.544-3.545 3.544h-24.366c-1.957 0-3.544-1.586-3.544-3.544z" fill="#e6e6e6"/><path d="m481.76 93.268h3.091v-2.405h-3.091z" fill="#cccbcb"/><path d="m510.0182 82.6337.014-24.208c0-1.958-1.587-3.545-3.545-3.545h-24.365c-1.958 0-3.545 1.587-3.545 3.545l-.013 24.208z" fill="#f4a6ac"/><path d="m499.9016 80.283h-10.751c-1.108 0-2.006-.898-2.006-2.005 0-1.108.898-2.006 2.006-2.006h10.751c1.108 0 2.005.898 2.005 2.006 0 1.107-.897 2.005-2.005 2.005" fill="#f94848"/><path d="m481.76 104.056h3.091v-2.405h-3.091z" fill="#cccbcb"/><path d="m386.1714 14.027h-45.082c-2.102 0-3.806 1.704-3.806 3.806v54.394l52.694-38.219v-16.175c0-2.102-1.704-3.806-3.806-3.806" fill="#fff"/><path d="m344.3652 25.6779c-.153 0-.299-.07-.394-.191l-.908-1.16c-.17-.217-.132-.532.085-.702.218-.169.532-.133.702.085l.487.621c1.143-1.601 2.422-2.739 3.806-3.388.248-.118.548-.01.665.241.118.25.009.548-.241.665-1.353.634-2.662 1.88-3.783 3.601-.088.136-.236.22-.398.228z" fill="#f94848"/><path d="m344.3652 37.675c-.153 0-.299-.07-.394-.191l-.908-1.161c-.17-.217-.132-.532.085-.702.218-.169.532-.133.702.085l.487.622c1.142-1.6 2.421-2.739 3.806-3.388.248-.117.548-.01.665.241.118.25.009.548-.241.665-1.354.635-2.663 1.88-3.783 3.601-.088.136-.235.22-.398.228z" fill="#f94848"/><path d="m368.1534 49.6539h-16.542v11.928z" fill="#f2f2f2"/><path d="m368.1534 49.6539 2.454-1.769h-18.645c-.215 0-.388.177-.383.392l.032 1.377z" fill="#e6e6e6"/><path d="m391.7695 89.8137h-54.694c-1.452 0-2.634-1.182-2.634-2.635v-12.99c0-.138.112-.25.25-.25s.25.112.25.25v12.99c0 1.177.957 2.135 2.134 2.135h54.694c1.177 0 2.135-.958 2.135-2.135v-56.076c0-.138.112-.25.25-.25.137 0 .25.112.25.25v56.076c0 1.453-1.182 2.635-2.635 2.635" fill="#f94848"/><path d="m241.9453 69.6672c-.276 0-.5-.224-.5-.5v-25.479c0-.276.224-.5.5-.5s.5.224.5.5v25.479c0 .276-.224.5-.5.5zm1.25 16.2265c-.219 0-.412-.143-.478-.351l-1.25-4c-.014-.048-.022-.098-.022-.149v-2.748c0-.276.224-.5.5-.5s.5.224.5.5v2.672l.75 2.399.75-2.399v-2.651c0-.276.224-.5.5-.5s.5.224.5.5v2.727c0 .051-.008.101-.022.149l-1.25 4c-.066.208-.259.351-.478.351zm1.25-16.247c-.276 0-.5-.224-.5-.5v-25.396c0-.277.224-.5.5-.5s.5.223.5.5v25.396c0 .276-.224.5-.5.5zm0-29.1778c-.276 0-.5-.224-.5-.5v-5.708c0-.413-.337-.75-.75-.75s-.75.337-.75.75v5.646c0 .277-.224.5-.5.5s-.5-.223-.5-.5v-5.646c0-.965.785-1.75 1.75-1.75s1.75.785 1.75 1.75v5.708c0 .276-.224.5-.5.5zm-8.166 29.1778c-.276 0-.5-.224-.5-.5v-25.333c0-.276.224-.5.5-.5s.5.224.5.5v25.333c0 .276-.224.5-.5.5zm1.25 16.247c-.219 0-.412-.143-.478-.351l-1.25-4c-.014-.048-.022-.098-.022-.149v-2.747c0-.276.224-.5.5-.5s.5.224.5.5v2.671l.75 2.399.75-2.399v-2.671c0-.276.224-.5.5-.5s.5.224.5.5v2.747c0 .051-.008.101-.022.149l-1.25 4c-.066.208-.259.351-.478.351zm1.25-16.2255c-.276 0-.5-.224-.5-.5v-25.417c0-.276.224-.5.5-.5s.5.224.5.5v25.417c0 .276-.224.5-.5.5zm0-29.3545c-.276 0-.5-.224-.5-.5v-5.553c0-.413-.337-.75-.75-.75s-.75.337-.75.75v5.553c0 .276-.224.5-.5.5s-.5-.224-.5-.5v-5.553c0-.965.785-1.75 1.75-1.75s1.75.785 1.75 1.75v5.553c0 .276-.224.5-.5.5z" fill="#f94848"/><path d="m163.4808 97.134v9.152c0 4.426 3.588 8.015 8.015 8.015h9.626c4.427 0 8.015-3.589 8.015-8.015v-9.152z" fill="#ccc"/><path d="m177.7393 58.2854c3.257 1.893 5.702 4.642 7.849 7.707 0 0 8.5-2.425 17.543-9.185l-8.268-8.061 17.964-17.992 6.572 6.562c.948-1.994 1.787-4.118 2.498-6.371l-9.602-9.54c-25.047 8.093-34.556 36.88-34.556 36.88" fill="#dbd1d1"/><path d="m212.2953 21.4054 9.602 9.54c1.117-3.534 1.913-7.392 2.276-11.605-4.298.153-8.25.893-11.878 2.065" fill="#f4a6ac"/><path d="m209.0742 41.6784 4.717-4.724 2.803 2.798-4.718 4.724zm3.753-10.924-17.964 17.992 8.268 8.061c5.941-4.442 12.112-10.749 16.268-19.491z" fill="#f4a6ac"/><path d="m187.9727 83.0808 2.491-16.461s-2.991 1.614-3.536.975c-3.167-5.382-7.749-8.627-11.334-10.701 5.667-15.465 15.478-25.629 15.478-25.629-4.822-2.694-10.499-4.041-16.521-3.533-13.729 1.157-24.869 12.17-26.168 25.886-.996 10.515 3.67 20.003 11.3 25.78v16.736h33.84v-11.5l-7.22 7.149z" fill="#f2f2f2"/><path d="m209.1777 55.0224v10.862l-22.25 22.166 3.917-21.666s7.5-3.303 18.333-11.362" fill="#f4a6ac"/><path d="m177.511 34.4674h10.774l-11.235 18.759-22.168 4.199z" fill="#f4a6ac"/><path d="m506.2217 120.6799h-23.835c-2.833 0-5.138-2.306-5.138-5.139v-3.848h34.112v3.848c0 2.833-2.306 5.139-5.139 5.139zm-28.973-62.12c0-2.833 2.305-5.139 5.138-5.139h23.835c2.833 0 5.139 2.306 5.139 5.139v51.133h-34.112zm-10.398 62.136c0 .282-.23.512-.512.512h-3.946-41.33c.849-.994 1.366-2.28 1.366-3.687v-3.984h16.636c.555 0 1.007-.451 1.007-1.006 0-.556-.452-1.007-1.007-1.007h-16.636v-2.987h26.636c.555 0 1.007-.451 1.007-1.006 0-.556-.452-1.007-1.007-1.007h-26.636v-4.08h40.216v-50.498h-53.615v-8.817h5.187v2.257c0 1.643 1.337 2.979 2.98 2.979 1.642 0 2.979-1.336 2.979-2.979v-2.257h4.657v2.257c0 1.643 1.336 2.979 2.979 2.979 1.642 0 2.979-1.336 2.979-2.979v-2.257h4.658v2.257c0 1.643 1.336 2.979 2.979 2.979s2.98-1.336 2.98-2.979v-2.257h4.657v2.257c0 1.643 1.336 2.979 2.978 2.979 1.643 0 2.98-1.336 2.98-2.979v-2.257h4.657v2.257c0 1.643 1.337 2.979 2.979 2.979 1.643 0 2.979-1.336 2.979-2.979v-2.257h3.701c.282 0 .512.231.512.513zm-46.422-3.175c0 2.033-1.654 3.687-3.687 3.687h-27.457-57.265c.122-.459.193-.939.193-1.436v-6.708h1.348c1.431 0 2.594-1.163 2.594-2.594s-1.163-2.594-2.594-2.594h-2.659c-.474-.32-1.046-.508-1.659-.508-.615 0-1.186.188-1.66.508h-2.46c-1.43 0-2.593 1.163-2.593 2.594s1.163 2.594 2.593 2.594h1.148v5.3c0 .462-.376.837-.838.837h-22.539c-.462 0-.838-.375-.838-.837v-5.3h1.192c1.431 0 2.594-1.163 2.594-2.594s-1.163-2.594-2.594-2.594h-2.228c-.079 0-.148.028-.221.045-.486-.345-1.075-.553-1.714-.553-.614 0-1.185.188-1.659.508h-2.615c-1.431 0-2.594 1.163-2.594 2.594s1.163 2.594 2.594 2.594h1.303v6.708c0 .497.071.977.193 1.436h-83.758-.981c-2.033 0-3.688-1.654-3.688-3.687v-17.957h11.4 189.75 11.399zm-88.263-7.645h1.395c.327 0 .594.267.594.594s-.267.594-.594.594h-1.348v-.724c0-.159-.023-.312-.047-.464zm-5.895 1.188h-1.148c-.327 0-.593-.267-.593-.594s.266-.594.593-.594h1.195c-.024.152-.047.305-.047.464zm-24.262-1.188h1.239c.328 0 .594.267.594.594s-.266.594-.594.594h-1.192v-.724c0-.159-.023-.312-.047-.464zm24.593 13.507h-24.877c-1.991 0-3.611-1.62-3.611-3.611v-9.432c0-.536.435-.972.971-.972.535 0 .971.436.971.972v8.024c0 1.564 1.273 2.837 2.838 2.837h22.539c1.564 0 2.838-1.273 2.838-2.837v-8.024c0-.536.435-.972.972-.972.535 0 .97.436.97.972v1.709c0 .005-.003.01-.003.015s.003.009.003.014v7.694c0 1.991-1.62 3.611-3.611 3.611zm-30.488-12.319h-1.303c-.327 0-.594-.267-.594-.594s.267-.594.594-.594h1.349c-.023.152-.046.305-.046.464zm15.707-87.176h5.044c.078 0 .142.064.142.143v73.533h-5.186zm-4.207 73.676h3.207v-.417h-3.207zm0-72.917h3.207v-.759h-3.207zm0 72h3.207v-.833h-3.207zm0-70.667h3.207v-.833h-3.207zm0 69.334h3.207v-.834h-3.207zm0-68h3.207v-.834h-3.207zm0 66.666h3.207v-.833h-3.207zm0-65.333h3.207v-.833h-3.207zm0 1.333h3.207v-.833h-3.207zm0 1.334h3.207v-.834h-3.207zm0 1.333h3.207v-.833h-3.207zm0 1.333h3.207v-.833h-3.207zm0 1.334h3.207v-.834h-3.207zm0 1.333h3.207v-.833h-3.207zm0 1.333h3.207v-.833h-3.207zm0 1.334h3.207v-.834h-3.207zm0 1.333h3.207v-.833h-3.207zm0 1.333h3.207v-.833h-3.207zm0 1.334h3.207v-.834h-3.207zm0 1.333h3.207v-.833h-3.207zm0 1.333h3.207v-.833h-3.207zm0 1.334h3.207v-.834h-3.207zm0 1.333h3.207v-.833h-3.207zm0 1.333h3.207v-.833h-3.207zm0 1.334h3.207v-.834h-3.207zm0 1.333h3.207v-.833h-3.207zm0 1.333h3.207v-.833h-3.207zm0 1.334h3.207v-.834h-3.207zm0 1.333h3.207v-.833h-3.207zm0 1.333h3.207v-.833h-3.207zm0 1.334h3.207v-.834h-3.207zm0 1.333h3.207v-.833h-3.207zm0 1.333h3.207v-.833h-3.207zm0 1.334h3.207v-.834h-3.207zm0 1.333h3.207v-.833h-3.207zm0 1.333h3.207v-.833h-3.207zm0 1.334h3.207v-.834h-3.207zm0 1.333h3.207v-.833h-3.207zm0 1.333h3.207v-.833h-3.207zm0 1.334h3.207v-.834h-3.207zm0 1.333h3.207v-.833h-3.207zm0 1.333h3.207v-.833h-3.207zm0 1.334h3.207v-.834h-3.207zm0 1.333h3.207v-.833h-3.207zm0 1.333h3.207v-.833h-3.207zm0 1.334h3.207v-.834h-3.207zm0 1.333h3.207v-.833h-3.207zm0 1.333h3.207v-.833h-3.207zm0 1.334h3.207v-.834h-3.207zm0 1.333h3.207v-.833h-3.207zm0 1.333h3.207v-.833h-3.207zm0 1.334h3.207v-.834h-3.207zm0 1.333h3.207v-.833h-3.207zm0 1.333h3.207v-.833h-3.207zm0 2.667h3.207v-.833h-3.207zm0-1.333h3.207v-.834h-3.207zm-42.777 6.25h41.776v-73.676h-41.776zm-6.661 0v-73.533c0-.079.065-.143.143-.143h4.653v73.676zm-32.201-65.278c.025-.049.041-.099.049-.152 3.026-9.112 2.487-16.013 2.472-16.171l-.077-.827-.828-.076c-.071-.007-2.489-.197-6.311.252v-5.736c0-2.488 2.024-4.512 4.512-4.512h3.894 11.187 145.594 11.188 4.862c2.488 0 4.513 2.024 4.513 4.512v87.988h-87.812v-73.533c0-1.298-1.056-2.354-2.353-2.354h-58.546c-1.298 0-2.354 1.056-2.354 2.354v73.533h-34.685v-54.814c0-.079-.028-.148-.045-.222 2.14-3.553 3.663-7.032 4.74-10.242zm-20.941 24.899-8.96-8.946 17.788-17.814 7.648 7.637c-2.991 5.958-8.024 12.888-16.476 19.123zm-17.236 31.684.6-3.623 21.488-21.521.002 3.022zm7.809 4.808c0 1.132-.921 2.053-2.053 2.053h-34.301c-1.132 0-2.052-.921-2.052-2.053v-8.393c0-2.266-.913-4.425-2.504-5.924-7.273-6.852-10.837-16.514-9.78-26.51 1.548-14.621 13.274-26.403 27.881-28.015 4.689-.517 9.295-.035 13.684 1.438 1.858.623 3.711 1.605 5.527 2.885-.881.828-1.754 1.708-2.619 2.636l-13.326.009-27.08 27.122 26.484-4.42c-.272.681-.556 1.354-.811 2.041l-.318.854.821.395c4.773 2.305 8.367 5.894 10.681 10.665l.398.82.852-.32c.715-.268 1.417-.541 2.109-.819l-4.392 26.555 10.799-10.815zm-13.145 23.124h-12.305c-4.902 0-8.914-3.836-9.217-8.663l30.767-9.884v5.382l-22.438 7.208c-.526.169-.816.732-.647 1.258.137.425.53.694.953.694.101 0 .204-.015.305-.048l21.827-7.012v1.819c0 5.099-4.147 9.246-9.245 9.246zm-5.401 5.191c-1.975 0-3.624-1.362-4.096-3.191h8.193c-.472 1.829-2.122 3.191-4.097 3.191zm-16.151-24.262h25.892l-25.892 8.317zm63.647-67.325-11.606-11.279c6.462-2 11.625-2.141 13.593-2.111.047 1.957-.071 7.044-1.987 13.39zm-32.121 30.006c.72 1.019 1.394 2.081 2.025 3.183-2.249 1.116-4.653 2.18-7.234 3.176-.393-.744-.826-1.449-1.278-2.137zm-3.862-4.663c1.175 1.205 2.279 2.479 3.293 3.841l-6.479 4.216c-.676-.943-1.416-1.825-2.21-2.652zm-4.451-3.911c1.324.989 2.568 2.062 3.744 3.205l-5.396 5.404c-.798-.764-1.644-1.479-2.549-2.133zm-6.151 1.779c.645-1.529 1.334-3.002 2.045-4.445 1.14.649 2.236 1.344 3.287 2.088l-4.212 6.494c-.721-.478-1.461-.935-2.244-1.346.36-.941.737-1.876 1.124-2.791zm-7.098-9.345 9.184.486c-.288.517-.564 1.049-.843 1.578-.132.25-.269.493-.399.746-.454.884-.896 1.784-1.325 2.7-.111.237-.215.482-.324.722-.277.605-.555 1.208-.821 1.827l-16.222 2.707zm-.512-.902c-.013.01-.022.022-.034.033l-11.9 11.918-3.624.605 22.09-22.122 3.022-.002zm16.996-9.278c-.238.284-.471.576-.706.866-.345.427-.689.857-1.026 1.297-.238.311-.473.628-.707.945-.324.439-.644.883-.96 1.334-.23.328-.458.658-.684.993-.312.463-.618.935-.922 1.41-.215.336-.431.671-.642 1.013-.311.505-.614 1.021-.915 1.538-.059.101-.12.198-.178.299l-8.794-.466 9.506-9.52 6.269-.005c-.082.096-.16.199-.241.296zm3.147-.568c1.658-1.812 3.354-3.417 5.061-4.855l3.815 3.809-11.513 11.529-3.105-3.101c1.78-2.668 3.691-5.14 5.742-7.382zm8.925 39.259-10.752 10.768 2.684-16.226c2.648-1.142 5.173-2.385 7.567-3.724zm.949-.951-.48-8.796c3.647-2.11 6.99-4.442 9.981-6.993l.005 6.269zm22.302-36.275c-.219.509-.457 1.029-.708 1.556l-8.113-8.101-19.2 19.23 9.557 9.542c-2.622 1.871-5.568 3.672-8.862 5.359-.704-1.234-1.459-2.421-2.271-3.555-.013-.053-.03-.106-.061-.154-.039-.06-.088-.107-.144-.144-1.194-1.634-2.493-3.167-3.909-4.584-.01-.011-.014-.025-.024-.036-.011-.01-.025-.014-.036-.024-1.418-1.412-2.951-2.708-4.584-3.898-.021-.018-.034-.04-.057-.055-.018-.012-.038-.013-.057-.022-1.192-.862-2.448-1.657-3.753-2.399 1.163-2.287 2.416-4.455 3.744-6.511l3.666 3.66 12.926-12.945-4.456-4.449c5.33-4.315 10.746-6.949 15.535-8.553l12.346 11.999c-.433 1.32-.935 2.683-1.539 4.084zm11.067-33.556h3.062c.775 0 1.452.43 1.805 1.064h-6.67c.352-.634 1.029-1.064 1.803-1.064zm156.782 0h3.061c.776 0 1.452.43 1.805 1.064h-6.67c.352-.634 1.029-1.064 1.804-1.064zm48.035 89.193h9v-8.431h-9zm0-18.86h9v-8.43h-9zm0 9.429h9v-8.43h-9zm-10 9.431h9v-8.431h-9zm0-18.86h9v-8.43h-9zm0 9.429h9v-8.43h-9zm-10 9.431h9v-8.431h-9zm0-18.86h9v-8.43h-9zm0 9.429h9v-8.43h-9zm-9.535 10.431h8.535v3.306c0 .277.223.5.5.5.276 0 .5-.223.5-.5v-3.306h9v3.306c0 .277.223.5.5.5.276 0 .5-.223.5-.5v-3.306h9v3.306c0 .277.223.5.5.5.276 0 .5-.223.5-.5v-3.306h9v3.306c0 .277.223.5.5.5.276 0 .5-.223.5-.5v-3.306h6.846c.277 0 .5-.224.5-.5 0-.277-.223-.5-.5-.5h-6.846v-8.431h6.846c.277 0 .5-.224.5-.5s-.223-.5-.5-.5h-6.846v-8.43h6.846c.277 0 .5-.223.5-.5 0-.276-.223-.5-.5-.5h-6.846v-8.429h6.846c.277 0 .5-.224.5-.5 0-.277-.223-.5-.5-.5h-6.846v-3.541c0-.277-.224-.5-.5-.5-.277 0-.5.223-.5.5v3.541h-9v-3.541c0-.277-.224-.5-.5-.5-.277 0-.5.223-.5.5v3.541h-9v-3.541c0-.277-.224-.5-.5-.5-.277 0-.5.223-.5.5v3.541h-9v-3.541c0-.277-.224-.5-.5-.5-.277 0-.5.223-.5.5v3.541h-8.535v-8.944h51.601v46.471h-38.202v-2.866h-13.399zm0-1h8.535v-8.431h-8.535zm0-9.431h8.535v-8.43h-8.535zm0-9.429h8.535v-8.43h-8.535zm7.187-33.51c0-.54.44-.98.98-.98s.979.44.979.98v6.563c0 .54-.439.979-.979.979s-.98-.439-.98-.979zm10.616 0c0-.54.439-.98.979-.98s.979.44.979.98v6.563c0 .54-.439.979-.979.979s-.979-.439-.979-.979zm10.616 0c0-.54.439-.98.979-.98s.98.44.98.98v6.563c0 .54-.44.979-.98.979s-.979-.439-.979-.979zm10.616 0c0-.54.438-.98.978-.98s.98.44.98.98v6.563c0 .54-.44.979-.98.979s-.978-.439-.978-.979zm10.615 0c0-.54.439-.98.979-.98.541 0 .979.44.979.98v6.563c0 .54-.438.979-.979.979-.54 0-.979-.439-.979-.979zm61.044 82.385h-9.178c1.707-1.305 2.815-3.356 2.815-5.667v-56.981c0-3.937-3.202-7.139-7.139-7.139h-23.835c-3.936 0-7.138 3.202-7.138 7.139v56.981c0 2.311 1.108 4.362 2.815 5.667h-9.266c.034-.165.053-.337.053-.512v-77.054c0-1.386-1.127-2.513-2.512-2.513h-3.701v-2.306c0-1.643-1.336-2.98-2.979-2.98-1.642 0-2.979 1.337-2.979 2.98v2.306h-4.657v-2.306c0-1.643-1.337-2.98-2.98-2.98-1.642 0-2.978 1.337-2.978 2.98v2.306h-4.657v-2.306c0-1.643-1.337-2.98-2.98-2.98s-2.979 1.337-2.979 2.98v2.306h-4.658v-2.306c0-1.643-1.337-2.98-2.979-2.98-1.643 0-2.979 1.337-2.979 2.98v2.306h-4.657v-2.306c0-1.643-1.337-2.98-2.979-2.98-1.643 0-2.98 1.337-2.98 2.98v2.306h-5.187v-31.553c0-3.59-2.922-6.512-6.513-6.512h-5.002c-.449-1.756-2.031-3.064-3.924-3.064h-3.061c-1.893 0-3.475 1.308-3.924 3.064h-145.872c-.449-1.756-2.031-3.064-3.924-3.064h-3.062c-1.893 0-3.474 1.308-3.923 3.064h-4.033c-3.591 0-6.512 2.922-6.512 6.512v6.016c-6.687 1.072-16.461 4.071-25.755 12.192-2.088-1.522-4.239-2.679-6.407-3.408-4.667-1.564-9.562-2.077-14.539-1.529-15.535 1.714-28.005 14.243-29.65 29.792-1.124 10.623 2.665 20.893 10.397 28.176 1.191 1.123 1.875 2.752 1.875 4.469v8.393c0 2.117 1.638 3.841 3.709 4.018v9.264c-.142.239-.194.529-.102.814.029.091.075.171.126.247.246 5.984 5.178 10.781 11.223 10.781h.994c.5 2.812 2.957 4.955 5.91 4.955 2.963 0 5.425-2.157 5.914-4.981 5.962-.271 10.732-5.192 10.732-11.22v-9.841c2.162-.082 3.9-1.855 3.9-4.037v-11.368c0-.127-.03-.247-.072-.359l14.061-14.083.292-.293-.01-13.5c2.959-2.792 5.396-5.671 7.402-8.54v52.03h-13.4v19.957c0 1.407.517 2.693 1.366 3.687h-7.853c-.553 0-1 .448-1 1 0 .553.447 1 1 1h97.633c.084 0 .159-.028.237-.048 1.026 1.348 2.642 2.223 4.462 2.223h24.877c1.799 0 3.398-.854 4.426-2.175h188.696c.553 0 1-.447 1-1 0-.552-.447-1-1-1z" fill="url(#b)"/><path d="m19.5488 109.383c0-6.567 5.343-11.91 11.909-11.91h6.182 83.047 28.343v1.322l-117.096-.281h-.04c-2.834 0-5.5 1.099-7.51 3.098-2.021 2.009-3.136 4.685-3.141 7.534-.005 2.848 1.101 5.527 3.113 7.544 2.013 2.016 4.69 3.127 7.54 3.127h117.134v1.475h-117.572c-6.566 0-11.909-5.343-11.909-11.909zm6.182-25.819c0-6.568 5.342-11.91 11.909-11.91h7.92 73.127v1.32l-80.572-.279h-.04c-2.834 0-5.5 1.099-7.51 3.098-2.02 2.009-3.135 4.684-3.14 7.532-.005 2.85 1.101 5.53 3.113 7.545 2.013 2.017 4.69 3.127 7.538 3.127h80.611v1.476h-81.047c-6.567 0-11.909-5.343-11.909-11.909zm7.919-25.821c0-6.566 5.342-11.909 11.91-11.909h90.177v1.319l-89.702-.279h-.038c-2.835 0-5.502 1.101-7.512 3.1-2.02 2.009-3.135 4.683-3.14 7.532-.006 2.849 1.1 5.528 3.111 7.545 2.013 2.017 4.691 3.127 7.54 3.127h89.741v1.476h-90.177c-6.568 0-11.91-5.343-11.91-11.911zm12.346 8.435c-2.314 0-4.489-.902-6.124-2.54s-2.532-3.815-2.527-6.128c.004-2.314.91-4.486 2.55-6.118 1.633-1.624 3.8-2.518 6.102-2.518h.031l86.897.262v8.032h-51.259c-.276 0-.5.224-.5.5 0 .277.224.5.5.5h51.259v2.005h-22.976c-.276 0-.5.224-.5.5s.224.5.5.5h22.976v5.005zm71.009 16.809h-46.733c-.277 0-.5.224-.5.5 0 .277.223.5.5.5h46.733v2.005h-18.45c-.277 0-.5.224-.5.5 0 .277.223.5.5.5h18.45v5.005h-78.929c-2.313 0-4.488-.902-6.123-2.539-1.634-1.638-2.532-3.814-2.528-6.129.004-2.313.91-4.486 2.551-6.117 1.64-1.633 3.835-2.488 6.132-2.517l78.897.274zm29.213 25.82h-51.259c-.276 0-.5.223-.5.5 0 .276.224.5.5.5h51.259v2.005h-22.976c-.276 0-.5.223-.5.5 0 .276.224.5.5.5h22.976v5.005h-114.322c-2.315 0-4.49-.903-6.124-2.54-1.635-1.638-2.533-3.814-2.529-6.127.004-2.315.91-4.488 2.551-6.12 1.633-1.623 3.798-2.516 6.101-2.516h.033l114.29.274zm13.542 12.485h-8.73v-3.475h-3.812v-17.027l2.81.007 1.002.002v-5.326h-30.343v-3.476h-2.682v-17.025l2.682.01v-3.328h17.05v-5.476h-3.812v-17.037l3.812.023v-5.33h-92.177c-7.67 0-13.91 6.239-13.91 13.909 0 5.055 2.718 9.474 6.761 11.911h-.771c-7.67 0-13.909 6.24-13.909 13.91 0 5.085 2.751 9.528 6.834 11.954-7.253.464-13.016 6.496-13.016 13.865 0 5.054 2.718 9.473 6.76 11.909h-9.309c-.553 0-1 .447-1 1s.447 1 1 1h16.458 118.572 1 8.73c.553 0 1-.447 1-1s-.447-1-1-1z" fill="url(#c)"/><path d="m493.8926 113.6603c-1.353 0-2.452 1.1-2.452 2.452 0 1.353 1.099 2.452 2.452 2.452s2.452-1.099 2.452-2.452c0-1.352-1.099-2.452-2.452-2.452m0 5.404c-1.628 0-2.952-1.324-2.952-2.952s1.324-2.952 2.952-2.952 2.952 1.324 2.952 2.952-1.324 2.952-2.952 2.952zm-12.9596-22.3703h4.795v-6.657h-4.795zm.5-.5h3.795v-5.657h-3.795zm1.4947-1.0962h-.931c-.137 0-.25-.112-.25-.25s.113-.25.25-.25h.931c.138 0 .25.112.25.25s-.112.25-.25.25zm.3155-.8222h-1.246c-.138 0-.25-.112-.25-.25s.112-.25.25-.25h1.246c.138 0 .25.112.25.25s-.112.25-.25.25zm18.3906-1.7969h-13.767c-.137 0-.25-.112-.25-.25s.113-.25.25-.25h13.767c.138 0 .25.112.25.25s-.112.25-.25.25zm-6.0176 1.8809h-7.749c-.138 0-.25-.112-.25-.25s.112-.25.25-.25h7.749c.138 0 .25.112.25.25s-.112.25-.25.25zm12.0049-5.8204h-26.311c-.137 0-.25-.112-.25-.25s.113-.25.25-.25h26.311c.138 0 .25.112.25.25s-.112.25-.25.25zm-5.9873 14.7764h-13.767c-.137 0-.25-.112-.25-.25s.113-.25.25-.25h13.767c.138 0 .25.112.25.25s-.112.25-.25.25zm-6.0176 1.8809h-7.749c-.138 0-.25-.112-.25-.25s.112-.25.25-.25h7.749c.138 0 .25.112.25.25s-.112.25-.25.25zm12.0049-5.8203h-26.311c-.137 0-.25-.112-.25-.25s.113-.25.25-.25h26.311c.138 0 .25.112.25.25s-.112.25-.25.25zm-21.6641-13.0469h-4.774c-.138 0-.25-.112-.25-.25s.112-.25.25-.25h4.774c.138 0 .25.112.25.25s-.112.25-.25.25zm-7.393-3.1953h31.455v-1h-31.455zm21.5551-9.4561h-11.186c-.276 0-.5-.224-.5-.5s.224-.5.5-.5h11.186c.276 0 .5.224.5.5s-.224.5-.5.5zm4.8575-2.915h-20.901c-.277 0-.5-.224-.5-.5s.223-.5.5-.5h20.901c.276 0 .5.224.5.5s-.224.5-.5.5zm-24.0436 36.7191h4.795v-6.657h-4.795zm.5-.5h3.795v-5.657h-3.795zm1.4947-1.0658h-.931c-.137 0-.25-.112-.25-.25s.113-.25.25-.25h.931c.138 0 .25.112.25.25s-.112.25-.25.25zm.3155-.8525h-1.246c-.138 0-.25-.112-.25-.25s.112-.25.25-.25h1.246c.138 0 .25.112.25.25s-.112.25-.25.25zm-82.7672 9.507h-16.893c-.719 0-1.304-.585-1.304-1.304v-6.107c0-.719.585-1.304 1.304-1.304h16.893c.718 0 1.303.585 1.303 1.304v6.107c0 .719-.585 1.304-1.303 1.304zm-16.893-7.715c-.167 0-.304.137-.304.304v6.107c0 .167.137.304.304.304h16.893c.167 0 .303-.137.303-.304v-6.107c0-.167-.136-.304-.303-.304zm15.2588 4.4262c-.568 0-1.031-.462-1.031-1.031 0-.568.463-1.031 1.031-1.031s1.031.463 1.031 1.031c0 .569-.463 1.031-1.031 1.031zm0-1.562c-.293 0-.531.238-.531.531s.238.531.531.531.531-.238.531-.531-.238-.531-.531-.531zm-13.5938 1.562c-.568 0-1.031-.462-1.031-1.031 0-.568.463-1.031 1.031-1.031s1.031.463 1.031 1.031c0 .569-.463 1.031-1.031 1.031zm0-1.562c-.293 0-.531.238-.531.531s.238.531.531.531.531-.238.531-.531-.238-.531-.531-.531zm9.25 3.1558h-4.875c-1.465 0-2.656-1.191-2.656-2.656s1.191-2.656 2.656-2.656h4.875c1.465 0 2.656 1.191 2.656 2.656s-1.191 2.656-2.656 2.656zm-4.875-4.312c-.913 0-1.656.743-1.656 1.656s.743 1.657 1.656 1.657h4.875c.913 0 1.656-.744 1.656-1.657s-.743-1.656-1.656-1.656zm7.139-79.4501c-.737-.375-1.611-.306-2.28.181l-1.366.993v-13.623c0-3.408-2.772-6.18-6.18-6.18h-47.065c-3.407 0-6.18 2.772-6.18 6.18v56.841l-2.84 2.066v11.996c0 3.076 2.502 5.578 5.578 5.578h55.95c3.076 0 5.578-2.502 5.578-5.578v-56.505c0-.827-.458-1.574-1.195-1.949zm-.805 58.454c0 1.973-1.605 3.578-3.578 3.578h-55.95c-1.973 0-3.578-1.605-3.578-3.578v-10.979l62.807-45.677c.061-.044.129-.051.196-.016.069.034.103.091.103.167zm-28.902-38.326h-16.307v-1.405c0-.309.25-.559.559-.559h18.448zm-6.521 4.742h-6.562c-.238 0-.43.192-.43.43 0 .237.192.429.43.429h5.381l-3.627 2.638h-1.754c-.238 0-.43.192-.43.43 0 .237.192.429.43.429h.572l-3.796 2.761v-10.842h14.907zm-24.843-37.319c0-2.305 1.875-4.18 4.18-4.18h47.065c2.305 0 4.18 1.875 4.18 4.18v15.078l-19.962 14.517h-19.847c-.87 0-1.577.707-1.577 1.577v1.914 12.09l-14.039 10.21zm47.5151 6.1657h-32.43c-.281 0-.508-.228-.508-.509s.227-.509.508-.509h32.43c.281 0 .509.228.509.509s-.228.509-.509.509zm0 6.4091h-32.43c-.281 0-.508-.228-.508-.509s.227-.509.508-.509h32.43c.281 0 .509.228.509.509s-.228.509-.509.509zm-3.1299-3.2041h-29.3c-.281 0-.509-.228-.509-.509s.228-.509.509-.509h29.3c.281 0 .509.228.509.509s-.228.509-.509.509zm-35.7285 1.484c-1.573 0-2.854-1.28-2.854-2.853s1.281-2.854 2.854-2.854 2.854 1.281 2.854 2.854-1.281 2.853-2.854 2.853zm0-4.689c-1.013 0-1.836.823-1.836 1.836s.823 1.836 1.836 1.836 1.836-.823 1.836-1.836-.823-1.836-1.836-1.836zm38.8584 11.997h-32.43c-.281 0-.508-.228-.508-.509s.227-.509.508-.509h32.43c.281 0 .509.228.509.509s-.228.509-.509.509zm-9.4551 6.4092h-22.975c-.281 0-.508-.228-.508-.509s.227-.509.508-.509h22.975c.281 0 .509.228.509.509s-.228.509-.509.509zm4.3252-3.2051h-27.3c-.281 0-.509-.228-.509-.509s.228-.509.509-.509h27.3c.281 0 .509.228.509.509s-.228.509-.509.509zm-33.7285 1.4849c-1.573 0-2.854-1.28-2.854-2.853s1.281-2.854 2.854-2.854 2.854 1.281 2.854 2.854-1.281 2.853-2.854 2.853zm0-4.689c-1.013 0-1.836.823-1.836 1.836s.823 1.836 1.836 1.836 1.836-.823 1.836-1.836-.823-1.836-1.836-1.836zm-96.8184 5.9912h-14.75c-.276 0-.5-.224-.5-.5s.224-.5.5-.5h14.75c.276 0 .5.224.5.5s-.224.5-.5.5zm0 3.2041h-14.75c-.276 0-.5-.224-.5-.5s.224-.5.5-.5h14.75c.276 0 .5.224.5.5s-.224.5-.5.5zm0 25.7959h-14.75c-.276 0-.5-.224-.5-.5s.224-.5.5-.5h14.75c.276 0 .5.224.5.5s-.224.5-.5.5zm0 9.2041h-14.75c-.276 0-.5-.224-.5-.5s.224-.5.5-.5h14.75c.276 0 .5.224.5.5s-.224.5-.5.5zm-3.8345 35.5481h-16.893c-.719 0-1.304-.585-1.304-1.304v-6.107c0-.719.585-1.304 1.304-1.304h16.893c.718 0 1.303.585 1.303 1.304v6.107c0 .719-.585 1.304-1.303 1.304zm-16.893-7.715c-.167 0-.304.137-.304.304v6.107c0 .167.137.304.304.304h16.893c.167 0 .303-.137.303-.304v-6.107c0-.167-.136-.304-.303-.304zm15.2587 4.4262c-.568 0-1.031-.462-1.031-1.031 0-.568.463-1.031 1.031-1.031s1.031.463 1.031 1.031c0 .569-.463 1.031-1.031 1.031zm0-1.562c-.293 0-.531.238-.531.531s.238.531.531.531.531-.238.531-.531-.238-.531-.531-.531zm-13.5937 1.562c-.568 0-1.031-.462-1.031-1.031 0-.568.463-1.031 1.031-1.031s1.031.463 1.031 1.031c0 .569-.463 1.031-1.031 1.031zm0-1.562c-.293 0-.531.238-.531.531s.238.531.531.531.531-.238.531-.531-.238-.531-.531-.531zm9.25 3.1558h-4.875c-1.465 0-2.656-1.191-2.656-2.656s1.191-2.656 2.656-2.656h4.875c1.465 0 2.656 1.191 2.656 2.656s-1.191 2.656-2.656 2.656zm-4.875-4.312c-.913 0-1.656.743-1.656 1.656s.743 1.657 1.656 1.657h4.875c.913 0 1.656-.744 1.656-1.657s-.743-1.656-1.656-1.656zm-18.8211-72.3168-5.423 5.431 3.509 3.506 5.425-5.433zm-4.009 5.431 4.011-4.017 2.094 2.092-4.01 4.017zm-2.4941 1.791c-.195-.195-.512-.195-.707 0s-.195.512 0 .707l2.802 2.798c.097.098.225.146.353.146s.256-.048.354-.146c.195-.195.195-.512 0-.707zm15.2406-21.3412h-.001c-.511.001-.992.201-1.353.562-.361.362-.561.843-.56 1.354 0 .511.201.992.562 1.353.362.361.843.561 1.354.561.511-.001.992-.201 1.353-.562.361-.362.561-.843.56-1.354 0-.511-.201-.992-.562-1.353-.362-.361-.843-.561-1.353-.561zm.648 2.561c-.173.173-.402.269-.646.269-.245 0-.474-.096-.647-.268-.173-.173-.269-.402-.269-.647 0-.244.095-.473.267-.646.173-.173.402-.269.647-.269.244 0 .473.096.646.268.357.356.357.937.002 1.293zm-35.7861 17.0937c.098.098.226.146.354.146.127 0 .255-.048.353-.146l8.968-8.981c.195-.196.195-.513 0-.707-.196-.196-.512-.196-.707 0l-8.968 8.981c-.195.195-.195.513 0 .707zm18.1582 3.4287c-.195-.195-.512-.195-.707 0s-.195.512 0 .707l2.802 2.798c.097.098.225.146.353.146s.256-.048.354-.146c.195-.195.195-.512 0-.707z" fill="url(#d)"/><path d="m116.8691 108.884c-1.201 0-2.135-.317-2.759-.997-4.196-4.574 8.927-21.028 20.675-34.026.422-.467 1.142-.5 1.606-.081.465.421.502 1.14.082 1.606-19.273 21.321-21.959 29.577-20.687 30.964 2.823 3.084 27.016-10.683 63.339-43.638.465-.422 1.183-.386 1.605.078.422.465.387 1.184-.078 1.606-21.002 19.055-53.041 44.488-63.783 44.488" fill="#f94848"/></g></svg>